<?xml version="1.0" standalone="no"?><!DOCTYPE svg PUBLIC "-//W3C//DTD SVG 1.1//EN" "http://www.w3.org/Graphics/SVG/1.1/DTD/svg11.dtd"><svg t="1652327302371" class="icon" viewBox="0 0 1024 1024" version="1.1" xmlns="http://www.w3.org/2000/svg" p-id="1405" xmlns:xlink="http://www.w3.org/1999/xlink" width="200" height="200"><defs><style type="text/css">@font-face { font-family: feedback-iconfont; src: url("//at.alicdn.com/t/font_1031158_u69w8yhxdu.woff2?t=1630033759944") format("woff2"), url("//at.alicdn.com/t/font_1031158_u69w8yhxdu.woff?t=1630033759944") format("woff"), url("//at.alicdn.com/t/font_1031158_u69w8yhxdu.ttf?t=1630033759944") format("truetype"); }
</style></defs><path d="M862.506667 348.586667L583.893333 150.613333a106.666667 106.666667 0 0 0-143.786666 0L163.84 346.666667l-2.346667 1.92A106.666667 106.666667 0 0 0 128 426.666667v368a106.666667 106.666667 0 0 0 106.666667 106.666666h554.666666a106.666667 106.666667 0 0 0 106.666667-106.666666V426.666667a106.666667 106.666667 0 0 0-33.493333-78.08zM853.333333 794.666667a64 64 0 0 1-64 64H234.666667a64 64 0 0 1-64-64V426.666667a64 64 0 0 1 19.2-45.653334l276.053333-196.48 2.133333-1.92a64 64 0 0 1 87.893334 0l277.333333 197.973334A64 64 0 0 1 853.333333 426.666667z" p-id="1406"></path><path d="M741.333333 512a21.333333 21.333333 0 0 0-14.933333 6.186667l-170.666667 170.666666a64 64 0 0 1-90.666666 0l-170.666667-170.666666a21.333333 21.333333 0 0 0-14.933333-6.186667 21.333333 21.333333 0 0 0-15.146667 36.48l170.666667 170.666667a106.666667 106.666667 0 0 0 150.826666 0l170.666667-170.666667a21.333333 21.333333 0 0 0-15.146667-36.48z" p-id="1407"></path></svg>