<?xml version="1.0" standalone="no"?><!DOCTYPE svg PUBLIC "-//W3C//DTD SVG 1.1//EN" "http://www.w3.org/Graphics/SVG/1.1/DTD/svg11.dtd"><svg t="1647830254125" class="icon" viewBox="0 0 1024 1024" version="1.1" xmlns="http://www.w3.org/2000/svg" p-id="2228" xmlns:xlink="http://www.w3.org/1999/xlink" width="200" height="200"><defs><style type="text/css">@font-face { font-family: feedback-iconfont; src: url("//at.alicdn.com/t/font_1031158_u69w8yhxdu.woff2?t=1630033759944") format("woff2"), url("//at.alicdn.com/t/font_1031158_u69w8yhxdu.woff?t=1630033759944") format("woff"), url("//at.alicdn.com/t/font_1031158_u69w8yhxdu.ttf?t=1630033759944") format("truetype"); }
</style></defs><path d="M153.6 870.4h716.8V588.8c0-197.12-161.28-358.4-358.4-358.4S153.6 391.68 153.6 588.8v281.6z m488.96-547.84c53.76 0 97.28 43.52 97.28 97.28 0 53.76-43.52 97.28-97.28 97.28-53.76 0-97.28-43.52-97.28-97.28 0-53.76 43.52-97.28 97.28-97.28zM524.8 128c20.48 0 38.4-17.92 38.4-38.4v-51.2c0-20.48-17.92-38.4-38.4-38.4S486.4 17.92 486.4 38.4v51.2c0 20.48 17.92 38.4 38.4 38.4zM860.16 179.2L896 143.36c15.36-15.36 15.36-40.96 0-56.32-15.36-15.36-38.4-15.36-53.76 0l-35.84 35.84c-15.36 15.36-15.36 38.4 0 53.76 12.8 17.92 38.4 17.92 53.76 2.56zM163.84 179.2c15.36 15.36 40.96 15.36 56.32 0 15.36-15.36 15.36-38.4 0-53.76L181.76 87.04c-12.8-12.8-38.4-12.8-53.76 0-15.36 15.36-15.36 40.96 0 56.32L163.84 179.2zM908.8 947.2h-793.6c-20.48 0-38.4 17.92-38.4 38.4S94.72 1024 115.2 1024h793.6c20.48 0 38.4-17.92 38.4-38.4s-17.92-38.4-38.4-38.4z" fill="#999999" p-id="2229"></path></svg>